<?xml version="1.0" standalone="no"?>
<!DOCTYPE svg PUBLIC "-//W3C//DTD SVG 20010904//EN"
 "http://www.w3.org/TR/2001/REC-SVG-20010904/DTD/svg10.dtd">
<svg version="1.0" xmlns="http://www.w3.org/2000/svg"
 width="1080.000000pt" height="1080.000000pt" viewBox="0 0 1080.000000 1080.000000"
 preserveAspectRatio="xMidYMid meet">
<metadata>
Created by potrace 1.14, written by Peter Selinger 2001-2017
</metadata>
<g transform="translate(0.000000,1080.000000) scale(0.100000,-0.100000)"
fill="#000000" stroke="none">
<path d="M5230 9104 c-223 -48 -432 -266 -496 -519 -17 -66 -18 -185 -24
-1860 l-6 -1790 -22 -83 c-29 -110 -62 -178 -133 -271 -87 -116 -228 -228
-350 -277 -72 -29 -121 -30 -164 -4 -51 31 -65 73 -64 187 0 148 5 156 124
219 55 29 105 57 112 63 14 13 7 43 -18 70 l-20 21 62 0 c88 0 124 24 138 92
17 75 3 1115 -15 1132 -7 7 -18 33 -24 57 -7 24 -21 59 -32 77 -11 17 -17 32
-13 32 3 0 -8 20 -25 44 -16 25 -30 54 -30 65 0 12 -5 21 -10 21 -6 0 -18 16
-27 35 -9 19 -20 35 -24 35 -4 0 -15 21 -25 48 -10 26 -21 52 -26 58 -4 6 -5
14 -1 17 3 4 -2 9 -11 13 -9 3 -16 14 -16 24 0 11 -4 22 -10 25 -5 3 -10 17
-10 30 0 13 -4 26 -10 30 -5 3 -7 12 -3 20 3 9 1 21 -4 28 -15 19 -35 96 -28
107 3 6 2 10 -3 10 -5 0 -12 12 -15 28 -2 15 -9 41 -15 57 -11 31 -39 172 -47
239 -3 21 -7 42 -10 46 -3 5 -1 12 5 15 8 5 8 11 0 19 -5 8 -13 88 -16 182 -4
93 -11 175 -17 182 -6 8 -6 12 0 12 9 0 18 72 28 218 2 30 9 59 15 67 6 7 8
20 4 29 -3 9 -1 22 5 30 7 8 11 18 10 22 -1 5 3 22 9 37 7 16 12 33 12 38 0
26 83 146 123 179 10 8 32 27 50 42 18 15 41 31 51 34 11 4 29 15 40 25 11 11
26 19 33 19 19 0 16 9 -13 48 -17 22 -54 47 -101 70 -64 30 -87 36 -167 40
-155 8 -341 -38 -508 -126 -72 -37 -102 -61 -167 -131 -226 -246 -314 -414
-410 -784 -53 -201 -70 -325 -78 -542 -8 -263 22 -487 110 -800 72 -255 191
-500 349 -715 58 -78 208 -239 282 -301 154 -130 174 -149 179 -168 4 -17 0
-21 -17 -21 -15 0 -22 -7 -23 -22 -1 -12 -12 -30 -24 -39 -12 -9 -19 -21 -16
-27 4 -5 -4 -13 -18 -16 -14 -4 -25 -11 -25 -16 0 -6 -12 -10 -26 -10 -14 0
-39 -9 -55 -21 -22 -15 -37 -19 -57 -14 -15 4 -54 9 -86 11 -33 3 -66 10 -73
16 -7 6 -13 8 -13 5 0 -10 -75 15 -94 31 -11 10 -16 11 -12 5 4 -7 2 -13 -4
-13 -6 0 -13 7 -16 15 -3 8 -22 19 -42 26 -36 12 -46 18 -83 52 -10 9 -21 17
-24 17 -3 0 -14 8 -25 18 -11 9 -29 25 -40 35 -11 9 -22 17 -25 17 -3 0 -47
41 -98 91 -50 49 -109 106 -129 126 -21 20 -38 42 -38 48 0 6 -16 29 -35 51
-19 21 -35 43 -35 47 0 4 -9 18 -21 30 -29 31 -114 161 -111 170 1 4 -2 7 -6
7 -4 0 -16 24 -26 53 -11 28 -25 59 -32 68 -8 8 -14 21 -14 28 0 6 -16 49 -36
94 -20 45 -43 96 -50 113 -22 50 -84 301 -89 359 -1 11 -6 45 -11 75 l-8 55
-7 -40 c-4 -27 -7 -4 -9 70 -3 124 -2 142 7 205 3 25 6 60 5 78 0 18 3 30 9
27 9 -6 15 51 11 108 -1 15 3 27 9 27 6 0 8 7 5 16 -4 9 -2 22 2 28 5 6 26 79
47 161 41 161 56 205 133 388 28 64 46 117 40 117 -12 0 -75 -63 -126 -125
-68 -83 -265 -417 -296 -503 -13 -37 -31 -83 -39 -102 -14 -33 -15 -33 -20
-10 -4 24 -4 24 -6 2 0 -13 -5 -21 -10 -18 -4 3 -17 -12 -27 -34 -10 -22 -22
-40 -26 -40 -5 0 -8 -11 -8 -24 0 -13 -8 -30 -17 -37 -15 -13 -16 -12 -11 8 4
13 3 25 -2 28 -4 3 -11 -7 -15 -22 -3 -15 -22 -61 -42 -103 -82 -175 -169
-499 -158 -589 3 -31 2 -40 -4 -26 -18 41 -24 -58 -17 -294 7 -265 14 -353 27
-345 5 3 9 -2 9 -10 0 -9 5 -16 10 -16 6 0 16 -12 23 -27 13 -30 42 -63 55
-63 4 0 16 -13 25 -30 10 -16 22 -30 27 -30 5 0 7 -7 3 -16 -4 -10 1 -17 16
-21 12 -3 21 -13 21 -24 0 -10 5 -21 10 -24 6 -4 8 -15 5 -25 -4 -12 2 -27 14
-39 12 -12 21 -31 21 -43 0 -13 7 -36 15 -52 8 -15 15 -43 15 -62 0 -18 5 -36
10 -39 6 -3 10 -26 10 -51 0 -24 5 -44 10 -44 6 0 10 -9 10 -19 0 -11 13 -39
29 -63 16 -24 32 -58 36 -76 3 -18 10 -30 15 -27 4 3 6 -4 3 -15 -3 -12 0 -20
6 -20 7 0 9 -4 6 -10 -3 -5 -1 -10 4 -10 9 0 81 -137 81 -154 0 -4 11 -23 24
-44 13 -20 35 -62 47 -92 13 -30 37 -77 54 -105 28 -45 47 -80 49 -95 2 -9 50
-75 61 -82 6 -5 6 -8 0 -8 -7 0 -7 -3 0 -8 6 -4 15 -14 20 -23 58 -92 95 -142
136 -182 27 -27 49 -52 49 -56 0 -5 8 -17 17 -29 10 -11 27 -31 38 -44 11 -12
19 -27 17 -31 -1 -4 8 -18 20 -32 13 -13 34 -40 48 -60 36 -52 112 -149 125
-157 5 -4 7 -8 4 -8 -4 0 20 -28 53 -62 33 -34 67 -77 75 -95 7 -19 18 -31 22
-28 5 3 22 -11 38 -30 15 -20 38 -47 51 -61 12 -14 22 -29 22 -35 0 -5 15 -33
33 -62 19 -29 32 -58 29 -66 -3 -10 0 -11 9 -5 12 6 12 5 1 -8 -10 -12 -9 -21
2 -43 19 -35 10 -64 -11 -38 -13 17 -14 16 -11 -7 5 -28 -37 -79 -45 -57 -4 9
-6 9 -6 0 -1 -6 9 -19 21 -27 12 -9 19 -18 16 -22 -8 -8 -211 99 -330 173
-224 141 -492 379 -679 603 -131 156 -257 342 -331 488 -12 23 -26 42 -30 42
-24 0 19 -123 96 -280 24 -47 49 -101 56 -120 21 -52 156 -286 206 -356 309
-436 637 -740 1104 -1024 154 -93 521 -293 640 -347 195 -90 337 -143 324
-121 -5 8 1 9 17 4 121 -35 259 -64 279 -59 16 4 21 3 16 -5 -4 -7 -3 -12 3
-12 5 0 18 -3 28 -6 11 -4 14 -3 7 3 -9 6 -8 11 2 21 7 7 16 12 19 12 2 1 10
2 17 4 7 3 38 10 68 16 75 16 155 56 185 92 14 16 25 33 25 37 0 4 14 15 31
25 26 15 66 20 227 27 196 9 239 13 277 29 119 48 200 88 220 106 14 13 25 21
25 18 0 -3 21 6 48 19 26 14 71 35 100 47 30 11 69 30 89 41 19 11 32 15 28 9
-3 -5 25 6 64 25 38 19 73 35 78 35 5 0 15 6 21 12 7 7 34 19 60 28 42 13 179
85 192 100 3 3 24 14 48 24 23 11 42 22 42 27 0 4 13 11 28 17 16 5 35 16 43
23 8 8 47 31 86 51 87 46 226 145 300 216 13 12 25 22 27 22 1 0 42 38 91 85
49 47 93 85 97 85 4 0 8 7 8 15 0 8 4 15 9 15 5 0 37 30 72 66 96 100 109 114
109 120 0 13 48 73 53 67 4 -3 7 4 7 16 0 12 7 24 15 27 8 4 25 23 37 45 11
21 25 36 29 33 5 -3 6 1 3 9 -3 8 2 22 11 31 9 9 14 16 10 16 -3 0 2 15 12 33
9 17 18 38 19 45 1 7 8 20 15 28 7 9 14 25 14 37 1 11 7 23 13 25 7 2 12 10
12 18 0 8 4 22 9 32 8 16 16 34 40 95 5 12 19 51 32 87 13 36 37 97 54 135 18
39 30 76 27 84 -3 9 0 11 8 6 9 -5 11 -4 6 3 -4 6 -2 30 4 52 6 23 13 58 16
78 8 70 16 117 19 122 7 11 18 125 19 187 1 35 4 63 7 63 11 0 8 334 -4 342
-8 5 -7 11 2 22 8 9 9 16 4 16 -6 0 -18 35 -27 78 -9 42 -23 90 -31 105 -8 16
-15 38 -15 48 0 13 -4 18 -12 13 -6 -4 -8 -3 -5 3 7 10 -13 85 -24 93 -9 6
-43 81 -44 96 0 10 -17 48 -52 116 -7 14 -13 33 -13 42 0 9 -4 16 -9 16 -5 0
-12 15 -16 33 -7 34 -27 85 -51 129 -7 14 -14 31 -14 38 0 7 -8 24 -19 38 -10
15 -26 50 -35 77 -10 28 -29 73 -43 102 -13 29 -24 55 -24 58 1 3 -5 13 -14
21 -8 9 -15 23 -15 31 0 9 -11 31 -25 49 -14 18 -25 37 -25 42 0 5 -7 15 -15
22 -8 7 -12 16 -10 21 3 4 0 11 -7 16 -7 4 -31 35 -53 68 -22 33 -42 62 -45
65 -3 3 -11 17 -17 33 -7 15 -17 27 -23 27 -6 0 -9 4 -5 9 3 6 -3 14 -12 20
-10 5 -15 13 -11 17 4 4 -6 20 -22 36 -17 15 -30 33 -30 38 0 6 -5 10 -11 10
-5 0 -7 5 -4 10 3 6 -3 10 -14 10 -12 0 -21 7 -21 15 0 19 -62 85 -79 85 -7 0
-19 16 -27 35 -8 20 -21 38 -29 42 -8 3 -15 11 -15 19 0 8 -16 24 -35 36 -19
13 -35 29 -35 36 0 6 -4 12 -8 12 -5 0 -15 11 -22 25 -8 14 -24 28 -37 31 -12
4 -20 10 -17 15 3 5 1 9 -5 9 -5 0 -13 9 -16 20 -3 11 -14 20 -23 21 -10 0
-12 3 -5 5 9 4 9 11 1 30 -6 13 -15 24 -19 24 -5 0 -20 19 -33 43 -15 25 -42
53 -66 66 -22 12 -40 27 -40 33 0 5 -6 8 -14 5 -11 -4 -17 7 -24 46 -9 47 -10
40 -11 -66 l-1 -119 49 -71 c93 -137 148 -233 233 -402 155 -313 244 -607 299
-996 37 -266 16 -755 -46 -1049 -38 -181 -141 -470 -220 -620 -47 -89 -106
-192 -102 -179 4 13 1 16 -16 11 -12 -3 -19 -1 -15 3 4 4 1 23 -7 42 -8 19
-17 52 -19 74 -3 23 -10 47 -17 55 -9 11 -8 18 2 31 12 14 12 15 0 9 -10 -7
-12 -2 -6 23 4 21 2 39 -8 54 -9 15 -12 29 -7 38 7 12 7 54 0 54 -1 0 -3 43
-5 95 -4 89 -19 239 -31 320 -3 19 -7 67 -10 105 -9 133 -26 279 -49 405 -4
19 -8 50 -11 68 -2 17 -6 47 -8 65 -6 40 -50 213 -65 250 -6 15 -18 30 -27 34
-12 4 -14 14 -9 42 5 32 2 29 -35 -33 -48 -82 -87 -128 -152 -179 -34 -27 -49
-35 -53 -25 -3 7 -6 751 -8 1653 -3 1763 -2 1695 -53 1825 -32 80 -104 183
-177 253 -84 81 -213 149 -325 172 -90 18 -225 18 -312 -1z"/>
<path d="M2055 7091 c-3 -5 -1 -12 5 -16 5 -3 10 1 10 9 0 18 -6 21 -15 7z"/>
<path d="M1956 6913 c-6 -14 -5 -15 5 -6 7 7 10 15 7 18 -3 3 -9 -2 -12 -12z"/>
<path d="M1911 6818 l-12 -33 24 25 c14 14 22 28 20 33 -9 15 -21 6 -32 -25z"/>
</g>
</svg>
